%TF.GenerationSoftware,KiCad,Pcbnew,8.0.5*%
%TF.CreationDate,2026-09-18T10:10:43+01:00*%
%TF.ProjectId,Diego Checkmate,44696567-6f20-4436-9865-636b6d617465,rev?*%
%TF.SameCoordinates,Original*%
%TF.FileFunction,Soldermask,Top*%
%TF.FilePolarity,Negative*%
%FSLAX46Y46*%
G04 Gerber Fmt 4.6, Leading zero omitted, Abs format (unit mm)*
G04 Created by KiCad (PCBNEW 8.0.5) date 2026-09-18 10:10:43*
%MOMM*%
%LPD*%
G01*
G04 APERTURE LIST*
G04 Aperture macros list*
%AMRoundRect*
0 Rectangle with rounded corners*
0 $1 Rounding radius*
0 $2 $3 $4 $5 $6 $7 $8 $9 X,Y pos of 4 corners*
0 Add a 4 corners polygon primitive as box body*
4,1,4,$2,$3,$4,$5,$6,$7,$8,$9,$2,$3,0*
0 Add four circle primitives for the rounded corners*
1,1,$1+$1,$2,$3*
1,1,$1+$1,$4,$5*
1,1,$1+$1,$6,$7*
1,1,$1+$1,$8,$9*
0 Add four rect primitives between the rounded corners*
20,1,$1+$1,$2,$3,$4,$5,0*
20,1,$1+$1,$4,$5,$6,$7,0*
20,1,$1+$1,$6,$7,$8,$9,0*
20,1,$1+$1,$8,$9,$2,$3,0*%
G04 Aperture macros list end*
%ADD10R,1.700000X1.700000*%
%ADD11O,1.700000X1.700000*%
%ADD12RoundRect,0.250000X0.405000X0.405000X-0.405000X0.405000X-0.405000X-0.405000X0.405000X-0.405000X0*%
%ADD13C,1.310000*%
%ADD14RoundRect,0.150000X0.150000X-0.825000X0.150000X0.825000X-0.150000X0.825000X-0.150000X-0.825000X0*%
%ADD15C,4.700000*%
%ADD16C,7.500000*%
%ADD17RoundRect,0.250000X-1.500000X-0.550000X1.500000X-0.550000X1.500000X0.550000X-1.500000X0.550000X0*%
%ADD18RoundRect,0.250000X-1.330000X-1.800000X1.330000X-1.800000X1.330000X1.800000X-1.330000X1.800000X0*%
%ADD19O,3.160000X4.100000*%
%ADD20RoundRect,0.250000X-1.050000X-0.550000X1.050000X-0.550000X1.050000X0.550000X-1.050000X0.550000X0*%
%ADD21R,1.730000X2.030000*%
%ADD22O,1.730000X2.030000*%
%ADD23RoundRect,0.250001X1.099999X1.399999X-1.099999X1.399999X-1.099999X-1.399999X1.099999X-1.399999X0*%
%ADD24O,2.700000X3.300000*%
%ADD25RoundRect,0.150000X0.150000X-0.512500X0.150000X0.512500X-0.150000X0.512500X-0.150000X-0.512500X0*%
%ADD26RoundRect,0.075000X-0.415425X-0.521491X0.521491X0.415425X0.415425X0.521491X-0.521491X-0.415425X0*%
%ADD27RoundRect,0.075000X0.415425X-0.521491X0.521491X-0.415425X-0.415425X0.521491X-0.521491X0.415425X0*%
%ADD28RoundRect,0.150000X0.150000X-0.837500X0.150000X0.837500X-0.150000X0.837500X-0.150000X-0.837500X0*%
%ADD29RoundRect,0.250000X-0.350000X0.850000X-0.350000X-0.850000X0.350000X-0.850000X0.350000X0.850000X0*%
%ADD30RoundRect,0.249997X-2.650003X2.950003X-2.650003X-2.950003X2.650003X-2.950003X2.650003X2.950003X0*%
%ADD31RoundRect,0.243750X0.456250X-0.243750X0.456250X0.243750X-0.456250X0.243750X-0.456250X-0.243750X0*%
G04 APERTURE END LIST*
D10*
%TO.C,J4*%
X82480500Y-189980500D03*
D11*
X82480500Y-187440500D03*
%TD*%
D12*
%TO.C,CN6*%
X346779500Y-139019500D03*
D13*
X346779500Y-144099500D03*
X344239500Y-139019500D03*
X344239500Y-144099500D03*
X341699500Y-139019500D03*
X341699500Y-144099500D03*
X339159500Y-139019500D03*
X339159500Y-144099500D03*
X336619500Y-139019500D03*
X336619500Y-144099500D03*
X334079500Y-139019500D03*
X334079500Y-144099500D03*
X331539500Y-139019500D03*
X331539500Y-144099500D03*
X328999500Y-139019500D03*
X328999500Y-144099500D03*
X326459500Y-139019500D03*
X326459500Y-144099500D03*
X323919500Y-139019500D03*
X323919500Y-144099500D03*
X321379500Y-139019500D03*
X321379500Y-144099500D03*
X318839500Y-139019500D03*
X318839500Y-144099500D03*
X316299500Y-139019500D03*
X316299500Y-144099500D03*
X313759500Y-139019500D03*
X313759500Y-144099500D03*
X311219500Y-139019500D03*
X311219500Y-144099500D03*
X308679500Y-139019500D03*
X308679500Y-144099500D03*
X306139500Y-139019500D03*
X306139500Y-144099500D03*
X303599500Y-139019500D03*
X303599500Y-144099500D03*
X301059500Y-139019500D03*
X301059500Y-144099500D03*
X298519500Y-139019500D03*
X298519500Y-144099500D03*
X295979500Y-139019500D03*
X295979500Y-144099500D03*
X293439500Y-139019500D03*
X293439500Y-144099500D03*
X290899500Y-139019500D03*
X290899500Y-144099500D03*
X288359500Y-139019500D03*
X288359500Y-144099500D03*
X285819500Y-139019500D03*
X285819500Y-144099500D03*
X283279500Y-139019500D03*
X283279500Y-144099500D03*
X280739500Y-139019500D03*
X280739500Y-144099500D03*
X278199500Y-139019500D03*
X278199500Y-144099500D03*
X275659500Y-139019500D03*
X275659500Y-144099500D03*
X273119500Y-139019500D03*
X273119500Y-144099500D03*
X270579500Y-139019500D03*
X270579500Y-144099500D03*
X268039500Y-139019500D03*
X268039500Y-144099500D03*
X265499500Y-139019500D03*
X265499500Y-144099500D03*
X262959500Y-139019500D03*
X262959500Y-144099500D03*
X260419500Y-139019500D03*
X260419500Y-144099500D03*
X257879500Y-139019500D03*
X257879500Y-144099500D03*
X255339500Y-139019500D03*
X255339500Y-144099500D03*
X252799500Y-139019500D03*
X252799500Y-144099500D03*
X250259500Y-139019500D03*
X250259500Y-144099500D03*
X247719500Y-139019500D03*
X247719500Y-144099500D03*
X245179500Y-139019500D03*
X245179500Y-144099500D03*
X242639500Y-139019500D03*
X242639500Y-144099500D03*
X240099500Y-139019500D03*
X240099500Y-144099500D03*
X237559500Y-139019500D03*
X237559500Y-144099500D03*
X235019500Y-139019500D03*
X235019500Y-144099500D03*
X232479500Y-139019500D03*
X232479500Y-144099500D03*
X229939500Y-139019500D03*
X229939500Y-144099500D03*
X227399500Y-139019500D03*
X227399500Y-144099500D03*
X224859500Y-139019500D03*
X224859500Y-144099500D03*
X222319500Y-139019500D03*
X222319500Y-144099500D03*
%TD*%
D14*
%TO.C,U8*%
X210829500Y-176499500D03*
X212099500Y-176499500D03*
X213369500Y-176499500D03*
X214639500Y-176499500D03*
X215909500Y-176499500D03*
X217179500Y-176499500D03*
X218449500Y-176499500D03*
X218449500Y-171549500D03*
X217179500Y-171549500D03*
X215909500Y-171549500D03*
X214639500Y-171549500D03*
X213369500Y-171549500D03*
X212099500Y-171549500D03*
X210829500Y-171549500D03*
%TD*%
D12*
%TO.C,CN4*%
X209879500Y-118699500D03*
D13*
X209879500Y-123779500D03*
X207339500Y-118699500D03*
X207339500Y-123779500D03*
X204799500Y-118699500D03*
X204799500Y-123779500D03*
X202259500Y-118699500D03*
X202259500Y-123779500D03*
X199719500Y-118699500D03*
X199719500Y-123779500D03*
X197179500Y-118699500D03*
X197179500Y-123779500D03*
X194639500Y-118699500D03*
X194639500Y-123779500D03*
X192099500Y-118699500D03*
X192099500Y-123779500D03*
X189559500Y-118699500D03*
X189559500Y-123779500D03*
X187019500Y-118699500D03*
X187019500Y-123779500D03*
X184479500Y-118699500D03*
X184479500Y-123779500D03*
X181939500Y-118699500D03*
X181939500Y-123779500D03*
X179399500Y-118699500D03*
X179399500Y-123779500D03*
X176859500Y-118699500D03*
X176859500Y-123779500D03*
X174319500Y-118699500D03*
X174319500Y-123779500D03*
X171779500Y-118699500D03*
X171779500Y-123779500D03*
X169239500Y-118699500D03*
X169239500Y-123779500D03*
X166699500Y-118699500D03*
X166699500Y-123779500D03*
X164159500Y-118699500D03*
X164159500Y-123779500D03*
X161619500Y-118699500D03*
X161619500Y-123779500D03*
X159079500Y-118699500D03*
X159079500Y-123779500D03*
X156539500Y-118699500D03*
X156539500Y-123779500D03*
X153999500Y-118699500D03*
X153999500Y-123779500D03*
X151459500Y-118699500D03*
X151459500Y-123779500D03*
X148919500Y-118699500D03*
X148919500Y-123779500D03*
X146379500Y-118699500D03*
X146379500Y-123779500D03*
X143839500Y-118699500D03*
X143839500Y-123779500D03*
X141299500Y-118699500D03*
X141299500Y-123779500D03*
X138759500Y-118699500D03*
X138759500Y-123779500D03*
X136219500Y-118699500D03*
X136219500Y-123779500D03*
X133679500Y-118699500D03*
X133679500Y-123779500D03*
X131139500Y-118699500D03*
X131139500Y-123779500D03*
X128599500Y-118699500D03*
X128599500Y-123779500D03*
X126059500Y-118699500D03*
X126059500Y-123779500D03*
X123519500Y-118699500D03*
X123519500Y-123779500D03*
X120979500Y-118699500D03*
X120979500Y-123779500D03*
X118439500Y-118699500D03*
X118439500Y-123779500D03*
X115899500Y-118699500D03*
X115899500Y-123779500D03*
X113359500Y-118699500D03*
X113359500Y-123779500D03*
X110819500Y-118699500D03*
X110819500Y-123779500D03*
X108279500Y-118699500D03*
X108279500Y-123779500D03*
X105739500Y-118699500D03*
X105739500Y-123779500D03*
X103199500Y-118699500D03*
X103199500Y-123779500D03*
X100659500Y-118699500D03*
X100659500Y-123779500D03*
X98119500Y-118699500D03*
X98119500Y-123779500D03*
X95579500Y-118699500D03*
X95579500Y-123779500D03*
X93039500Y-118699500D03*
X93039500Y-123779500D03*
X90499500Y-118699500D03*
X90499500Y-123779500D03*
X87959500Y-118699500D03*
X87959500Y-123779500D03*
X85419500Y-118699500D03*
X85419500Y-123779500D03*
%TD*%
D15*
%TO.C,H3*%
X89419500Y-164199500D03*
D16*
X89419500Y-164199500D03*
%TD*%
D17*
%TO.C,C39*%
X268100000Y-152900000D03*
X273500000Y-152900000D03*
%TD*%
D18*
%TO.C,J2*%
X267840000Y-168700000D03*
D19*
X271800000Y-168700000D03*
X275760000Y-168700000D03*
X279720000Y-168700000D03*
%TD*%
D20*
%TO.C,C38*%
X322619500Y-182499500D03*
X326219500Y-182499500D03*
%TD*%
D21*
%TO.C,M2*%
X279760000Y-181100000D03*
D22*
X282300000Y-181100000D03*
X284840000Y-181100000D03*
%TD*%
D10*
%TO.C,J3*%
X82400000Y-183300000D03*
D11*
X82400000Y-180760000D03*
%TD*%
D17*
%TO.C,C2*%
X209819500Y-151799500D03*
X215219500Y-151799500D03*
%TD*%
D23*
%TO.C,J10*%
X344299500Y-171199500D03*
D24*
X340099500Y-171199500D03*
X335899500Y-171199500D03*
X331699500Y-171199500D03*
X327499500Y-171199500D03*
X323299500Y-171199500D03*
X319099500Y-171199500D03*
X314899500Y-171199500D03*
X310699500Y-171199500D03*
X306499500Y-171199500D03*
X302299500Y-171199500D03*
X298099500Y-171199500D03*
X344299500Y-165699500D03*
X340099500Y-165699500D03*
X335899500Y-165699500D03*
X331699500Y-165699500D03*
X327499500Y-165699500D03*
X323299500Y-165699500D03*
X319099500Y-165699500D03*
X314899500Y-165699500D03*
X310699500Y-165699500D03*
X306499500Y-165699500D03*
X302299500Y-165699500D03*
X298099500Y-165699500D03*
%TD*%
D17*
%TO.C,C10*%
X332619500Y-131299500D03*
X338019500Y-131299500D03*
%TD*%
%TO.C,C6*%
X181919500Y-131299500D03*
X187319500Y-131299500D03*
%TD*%
D10*
%TO.C,J7*%
X262200000Y-164820000D03*
D11*
X262200000Y-167360000D03*
X262200000Y-169900000D03*
X262200000Y-172440000D03*
X262200000Y-174980000D03*
X262200000Y-177520000D03*
%TD*%
D17*
%TO.C,C22*%
X281100000Y-152900000D03*
X286500000Y-152900000D03*
%TD*%
D25*
%TO.C,U11*%
X301099500Y-190774500D03*
X302049500Y-190774500D03*
X302999500Y-190774500D03*
X302999500Y-188499500D03*
X302049500Y-188499500D03*
X301099500Y-188499500D03*
%TD*%
D17*
%TO.C,C43*%
X234519500Y-160799500D03*
X239919500Y-160799500D03*
%TD*%
D10*
%TO.C,J1*%
X227999500Y-176524500D03*
D11*
X227999500Y-173984500D03*
X227999500Y-171444500D03*
%TD*%
D12*
%TO.C,CN5*%
X346779500Y-118699500D03*
D13*
X346779500Y-123779500D03*
X344239500Y-118699500D03*
X344239500Y-123779500D03*
X341699500Y-118699500D03*
X341699500Y-123779500D03*
X339159500Y-118699500D03*
X339159500Y-123779500D03*
X336619500Y-118699500D03*
X336619500Y-123779500D03*
X334079500Y-118699500D03*
X334079500Y-123779500D03*
X331539500Y-118699500D03*
X331539500Y-123779500D03*
X328999500Y-118699500D03*
X328999500Y-123779500D03*
X326459500Y-118699500D03*
X326459500Y-123779500D03*
X323919500Y-118699500D03*
X323919500Y-123779500D03*
X321379500Y-118699500D03*
X321379500Y-123779500D03*
X318839500Y-118699500D03*
X318839500Y-123779500D03*
X316299500Y-118699500D03*
X316299500Y-123779500D03*
X313759500Y-118699500D03*
X313759500Y-123779500D03*
X311219500Y-118699500D03*
X311219500Y-123779500D03*
X308679500Y-118699500D03*
X308679500Y-123779500D03*
X306139500Y-118699500D03*
X306139500Y-123779500D03*
X303599500Y-118699500D03*
X303599500Y-123779500D03*
X301059500Y-118699500D03*
X301059500Y-123779500D03*
X298519500Y-118699500D03*
X298519500Y-123779500D03*
X295979500Y-118699500D03*
X295979500Y-123779500D03*
X293439500Y-118699500D03*
X293439500Y-123779500D03*
X290899500Y-118699500D03*
X290899500Y-123779500D03*
X288359500Y-118699500D03*
X288359500Y-123779500D03*
X285819500Y-118699500D03*
X285819500Y-123779500D03*
X283279500Y-118699500D03*
X283279500Y-123779500D03*
X280739500Y-118699500D03*
X280739500Y-123779500D03*
X278199500Y-118699500D03*
X278199500Y-123779500D03*
X275659500Y-118699500D03*
X275659500Y-123779500D03*
X273119500Y-118699500D03*
X273119500Y-123779500D03*
X270579500Y-118699500D03*
X270579500Y-123779500D03*
X268039500Y-118699500D03*
X268039500Y-123779500D03*
X265499500Y-118699500D03*
X265499500Y-123779500D03*
X262959500Y-118699500D03*
X262959500Y-123779500D03*
X260419500Y-118699500D03*
X260419500Y-123779500D03*
X257879500Y-118699500D03*
X257879500Y-123779500D03*
X255339500Y-118699500D03*
X255339500Y-123779500D03*
X252799500Y-118699500D03*
X252799500Y-123779500D03*
X250259500Y-118699500D03*
X250259500Y-123779500D03*
X247719500Y-118699500D03*
X247719500Y-123779500D03*
X245179500Y-118699500D03*
X245179500Y-123779500D03*
X242639500Y-118699500D03*
X242639500Y-123779500D03*
X240099500Y-118699500D03*
X240099500Y-123779500D03*
X237559500Y-118699500D03*
X237559500Y-123779500D03*
X235019500Y-118699500D03*
X235019500Y-123779500D03*
X232479500Y-118699500D03*
X232479500Y-123779500D03*
X229939500Y-118699500D03*
X229939500Y-123779500D03*
X227399500Y-118699500D03*
X227399500Y-123779500D03*
X224859500Y-118699500D03*
X224859500Y-123779500D03*
X222319500Y-118699500D03*
X222319500Y-123779500D03*
%TD*%
D10*
%TO.C,J9*%
X227999500Y-164399500D03*
%TD*%
D26*
%TO.C,U1*%
X240203306Y-172803306D03*
X240556860Y-173156859D03*
X240910413Y-173510413D03*
X241263967Y-173863966D03*
X241617520Y-174217519D03*
X241971073Y-174571073D03*
X242324627Y-174924626D03*
X242678180Y-175278179D03*
X243031734Y-175631733D03*
X243385287Y-175985286D03*
X243738840Y-176338840D03*
X244092394Y-176692393D03*
X244445947Y-177045946D03*
X244799500Y-177399500D03*
X245153054Y-177753053D03*
X245506607Y-178106607D03*
D27*
X248211291Y-178106607D03*
X248564844Y-177753053D03*
X248918398Y-177399500D03*
X249271951Y-177045946D03*
X249625504Y-176692393D03*
X249979058Y-176338840D03*
X250332611Y-175985286D03*
X250686164Y-175631733D03*
X251039718Y-175278179D03*
X251393271Y-174924626D03*
X251746825Y-174571073D03*
X252100378Y-174217519D03*
X252453931Y-173863966D03*
X252807485Y-173510413D03*
X253161038Y-173156859D03*
X253514592Y-172803306D03*
D26*
X253514592Y-170098622D03*
X253161038Y-169745069D03*
X252807485Y-169391515D03*
X252453931Y-169037962D03*
X252100378Y-168684409D03*
X251746825Y-168330855D03*
X251393271Y-167977302D03*
X251039718Y-167623749D03*
X250686164Y-167270195D03*
X250332611Y-166916642D03*
X249979058Y-166563088D03*
X249625504Y-166209535D03*
X249271951Y-165855982D03*
X248918398Y-165502428D03*
X248564844Y-165148875D03*
X248211291Y-164795321D03*
D27*
X245506607Y-164795321D03*
X245153054Y-165148875D03*
X244799500Y-165502428D03*
X244445947Y-165855982D03*
X244092394Y-166209535D03*
X243738840Y-166563088D03*
X243385287Y-166916642D03*
X243031734Y-167270195D03*
X242678180Y-167623749D03*
X242324627Y-167977302D03*
X241971073Y-168330855D03*
X241617520Y-168684409D03*
X241263967Y-169037962D03*
X240910413Y-169391515D03*
X240556860Y-169745069D03*
X240203306Y-170098622D03*
%TD*%
D28*
%TO.C,U3*%
X112674500Y-176637000D03*
X113944500Y-176637000D03*
X115214500Y-176637000D03*
X116484500Y-176637000D03*
X117754500Y-176637000D03*
X119024500Y-176637000D03*
X120294500Y-176637000D03*
X121564500Y-176637000D03*
X122834500Y-176637000D03*
X124104500Y-176637000D03*
X124104500Y-169712000D03*
X122834500Y-169712000D03*
X121564500Y-169712000D03*
X120294500Y-169712000D03*
X119024500Y-169712000D03*
X117754500Y-169712000D03*
X116484500Y-169712000D03*
X115214500Y-169712000D03*
X113944500Y-169712000D03*
X112674500Y-169712000D03*
%TD*%
D17*
%TO.C,C5*%
X223919500Y-131299500D03*
X229319500Y-131299500D03*
%TD*%
%TO.C,C40*%
X307100000Y-153020000D03*
X312500000Y-153020000D03*
%TD*%
D12*
%TO.C,CN1*%
X278599500Y-190119500D03*
D13*
X278599500Y-195199500D03*
X276059500Y-190119500D03*
X276059500Y-195199500D03*
X273519500Y-190119500D03*
X273519500Y-195199500D03*
X270979500Y-190119500D03*
X270979500Y-195199500D03*
X268439500Y-190119500D03*
X268439500Y-195199500D03*
X265899500Y-190119500D03*
X265899500Y-195199500D03*
X263359500Y-190119500D03*
X263359500Y-195199500D03*
X260819500Y-190119500D03*
X260819500Y-195199500D03*
X258279500Y-190119500D03*
X258279500Y-195199500D03*
X255739500Y-190119500D03*
X255739500Y-195199500D03*
X253199500Y-190119500D03*
X253199500Y-195199500D03*
X250659500Y-190119500D03*
X250659500Y-195199500D03*
X248119500Y-190119500D03*
X248119500Y-195199500D03*
X245579500Y-190119500D03*
X245579500Y-195199500D03*
X243039500Y-190119500D03*
X243039500Y-195199500D03*
X240499500Y-190119500D03*
X240499500Y-195199500D03*
X237959500Y-190119500D03*
X237959500Y-195199500D03*
X235419500Y-190119500D03*
X235419500Y-195199500D03*
X232879500Y-190119500D03*
X232879500Y-195199500D03*
X230339500Y-190119500D03*
X230339500Y-195199500D03*
X227799500Y-190119500D03*
X227799500Y-195199500D03*
X225259500Y-190119500D03*
X225259500Y-195199500D03*
X222719500Y-190119500D03*
X222719500Y-195199500D03*
X220179500Y-190119500D03*
X220179500Y-195199500D03*
X217639500Y-190119500D03*
X217639500Y-195199500D03*
X215099500Y-190119500D03*
X215099500Y-195199500D03*
X212559500Y-190119500D03*
X212559500Y-195199500D03*
X210019500Y-190119500D03*
X210019500Y-195199500D03*
X207479500Y-190119500D03*
X207479500Y-195199500D03*
X204939500Y-190119500D03*
X204939500Y-195199500D03*
X202399500Y-190119500D03*
X202399500Y-195199500D03*
X199859500Y-190119500D03*
X199859500Y-195199500D03*
X197319500Y-190119500D03*
X197319500Y-195199500D03*
X194779500Y-190119500D03*
X194779500Y-195199500D03*
X192239500Y-190119500D03*
X192239500Y-195199500D03*
X189699500Y-190119500D03*
X189699500Y-195199500D03*
X187159500Y-190119500D03*
X187159500Y-195199500D03*
X184619500Y-190119500D03*
X184619500Y-195199500D03*
X182079500Y-190119500D03*
X182079500Y-195199500D03*
X179539500Y-190119500D03*
X179539500Y-195199500D03*
X176999500Y-190119500D03*
X176999500Y-195199500D03*
X174459500Y-190119500D03*
X174459500Y-195199500D03*
X171919500Y-190119500D03*
X171919500Y-195199500D03*
%TD*%
D12*
%TO.C,CN3*%
X209879500Y-139019500D03*
D13*
X209879500Y-144099500D03*
X207339500Y-139019500D03*
X207339500Y-144099500D03*
X204799500Y-139019500D03*
X204799500Y-144099500D03*
X202259500Y-139019500D03*
X202259500Y-144099500D03*
X199719500Y-139019500D03*
X199719500Y-144099500D03*
X197179500Y-139019500D03*
X197179500Y-144099500D03*
X194639500Y-139019500D03*
X194639500Y-144099500D03*
X192099500Y-139019500D03*
X192099500Y-144099500D03*
X189559500Y-139019500D03*
X189559500Y-144099500D03*
X187019500Y-139019500D03*
X187019500Y-144099500D03*
X184479500Y-139019500D03*
X184479500Y-144099500D03*
X181939500Y-139019500D03*
X181939500Y-144099500D03*
X179399500Y-139019500D03*
X179399500Y-144099500D03*
X176859500Y-139019500D03*
X176859500Y-144099500D03*
X174319500Y-139019500D03*
X174319500Y-144099500D03*
X171779500Y-139019500D03*
X171779500Y-144099500D03*
X169239500Y-139019500D03*
X169239500Y-144099500D03*
X166699500Y-139019500D03*
X166699500Y-144099500D03*
X164159500Y-139019500D03*
X164159500Y-144099500D03*
X161619500Y-139019500D03*
X161619500Y-144099500D03*
X159079500Y-139019500D03*
X159079500Y-144099500D03*
X156539500Y-139019500D03*
X156539500Y-144099500D03*
X153999500Y-139019500D03*
X153999500Y-144099500D03*
X151459500Y-139019500D03*
X151459500Y-144099500D03*
X148919500Y-139019500D03*
X148919500Y-144099500D03*
X146379500Y-139019500D03*
X146379500Y-144099500D03*
X143839500Y-139019500D03*
X143839500Y-144099500D03*
X141299500Y-139019500D03*
X141299500Y-144099500D03*
X138759500Y-139019500D03*
X138759500Y-144099500D03*
X136219500Y-139019500D03*
X136219500Y-144099500D03*
X133679500Y-139019500D03*
X133679500Y-144099500D03*
X131139500Y-139019500D03*
X131139500Y-144099500D03*
X128599500Y-139019500D03*
X128599500Y-144099500D03*
X126059500Y-139019500D03*
X126059500Y-144099500D03*
X123519500Y-139019500D03*
X123519500Y-144099500D03*
X120979500Y-139019500D03*
X120979500Y-144099500D03*
X118439500Y-139019500D03*
X118439500Y-144099500D03*
X115899500Y-139019500D03*
X115899500Y-144099500D03*
X113359500Y-139019500D03*
X113359500Y-144099500D03*
X110819500Y-139019500D03*
X110819500Y-144099500D03*
X108279500Y-139019500D03*
X108279500Y-144099500D03*
X105739500Y-139019500D03*
X105739500Y-144099500D03*
X103199500Y-139019500D03*
X103199500Y-144099500D03*
X100659500Y-139019500D03*
X100659500Y-144099500D03*
X98119500Y-139019500D03*
X98119500Y-144099500D03*
X95579500Y-139019500D03*
X95579500Y-144099500D03*
X93039500Y-139019500D03*
X93039500Y-144099500D03*
X90499500Y-139019500D03*
X90499500Y-144099500D03*
X87959500Y-139019500D03*
X87959500Y-144099500D03*
X85419500Y-139019500D03*
X85419500Y-144099500D03*
%TD*%
D17*
%TO.C,C42*%
X320200000Y-153000000D03*
X325600000Y-153000000D03*
%TD*%
%TO.C,C37*%
X294100000Y-153020000D03*
X299500000Y-153020000D03*
%TD*%
D29*
%TO.C,U15*%
X335999500Y-182399500D03*
D30*
X333719500Y-188699500D03*
D29*
X331439500Y-182399500D03*
%TD*%
D28*
%TO.C,U2*%
X96874500Y-176637000D03*
X98144500Y-176637000D03*
X99414500Y-176637000D03*
X100684500Y-176637000D03*
X101954500Y-176637000D03*
X103224500Y-176637000D03*
X104494500Y-176637000D03*
X105764500Y-176637000D03*
X107034500Y-176637000D03*
X108304500Y-176637000D03*
X108304500Y-169712000D03*
X107034500Y-169712000D03*
X105764500Y-169712000D03*
X104494500Y-169712000D03*
X103224500Y-169712000D03*
X101954500Y-169712000D03*
X100684500Y-169712000D03*
X99414500Y-169712000D03*
X98144500Y-169712000D03*
X96874500Y-169712000D03*
%TD*%
D14*
%TO.C,U10*%
X84789500Y-176674500D03*
X86059500Y-176674500D03*
X87329500Y-176674500D03*
X88599500Y-176674500D03*
X89869500Y-176674500D03*
X91139500Y-176674500D03*
X92409500Y-176674500D03*
X92409500Y-171724500D03*
X91139500Y-171724500D03*
X89869500Y-171724500D03*
X88599500Y-171724500D03*
X87329500Y-171724500D03*
X86059500Y-171724500D03*
X84789500Y-171724500D03*
%TD*%
D25*
%TO.C,U14*%
X288049500Y-190812000D03*
X288999500Y-190812000D03*
X289949500Y-190812000D03*
X289949500Y-188537000D03*
X288999500Y-188537000D03*
X288049500Y-188537000D03*
%TD*%
D28*
%TO.C,U4*%
X128274500Y-176637000D03*
X129544500Y-176637000D03*
X130814500Y-176637000D03*
X132084500Y-176637000D03*
X133354500Y-176637000D03*
X134624500Y-176637000D03*
X135894500Y-176637000D03*
X137164500Y-176637000D03*
X138434500Y-176637000D03*
X139704500Y-176637000D03*
X139704500Y-169712000D03*
X138434500Y-169712000D03*
X137164500Y-169712000D03*
X135894500Y-169712000D03*
X134624500Y-169712000D03*
X133354500Y-169712000D03*
X132084500Y-169712000D03*
X130814500Y-169712000D03*
X129544500Y-169712000D03*
X128274500Y-169712000D03*
%TD*%
D14*
%TO.C,U9*%
X234709500Y-134119500D03*
X235979500Y-134119500D03*
X237249500Y-134119500D03*
X238519500Y-134119500D03*
X239789500Y-134119500D03*
X241059500Y-134119500D03*
X242329500Y-134119500D03*
X242329500Y-129169500D03*
X241059500Y-129169500D03*
X239789500Y-129169500D03*
X238519500Y-129169500D03*
X237249500Y-129169500D03*
X235979500Y-129169500D03*
X234709500Y-129169500D03*
%TD*%
D28*
%TO.C,U7*%
X183839500Y-176499500D03*
X185109500Y-176499500D03*
X186379500Y-176499500D03*
X187649500Y-176499500D03*
X188919500Y-176499500D03*
X190189500Y-176499500D03*
X191459500Y-176499500D03*
X192729500Y-176499500D03*
X193999500Y-176499500D03*
X195269500Y-176499500D03*
X195269500Y-169574500D03*
X193999500Y-169574500D03*
X192729500Y-169574500D03*
X191459500Y-169574500D03*
X190189500Y-169574500D03*
X188919500Y-169574500D03*
X187649500Y-169574500D03*
X186379500Y-169574500D03*
X185109500Y-169574500D03*
X183839500Y-169574500D03*
%TD*%
D17*
%TO.C,C4*%
X195919500Y-131299500D03*
X201319500Y-131299500D03*
%TD*%
%TO.C,C7*%
X209919500Y-131299500D03*
X215319500Y-131299500D03*
%TD*%
D20*
%TO.C,C36*%
X341469500Y-182099500D03*
X345069500Y-182099500D03*
%TD*%
D28*
%TO.C,U5*%
X150074500Y-176537000D03*
X151344500Y-176537000D03*
X152614500Y-176537000D03*
X153884500Y-176537000D03*
X155154500Y-176537000D03*
X156424500Y-176537000D03*
X157694500Y-176537000D03*
X158964500Y-176537000D03*
X160234500Y-176537000D03*
X161504500Y-176537000D03*
X161504500Y-169612000D03*
X160234500Y-169612000D03*
X158964500Y-169612000D03*
X157694500Y-169612000D03*
X156424500Y-169612000D03*
X155154500Y-169612000D03*
X153884500Y-169612000D03*
X152614500Y-169612000D03*
X151344500Y-169612000D03*
X150074500Y-169612000D03*
%TD*%
D15*
%TO.C,H1*%
X85419500Y-110199500D03*
D16*
X85419500Y-110199500D03*
%TD*%
D12*
%TO.C,CN2*%
X220919500Y-159339500D03*
D13*
X220919500Y-164419500D03*
X218379500Y-159339500D03*
X218379500Y-164419500D03*
X215839500Y-159339500D03*
X215839500Y-164419500D03*
X213299500Y-159339500D03*
X213299500Y-164419500D03*
X210759500Y-159339500D03*
X210759500Y-164419500D03*
X208219500Y-159339500D03*
X208219500Y-164419500D03*
X205679500Y-159339500D03*
X205679500Y-164419500D03*
X203139500Y-159339500D03*
X203139500Y-164419500D03*
X200599500Y-159339500D03*
X200599500Y-164419500D03*
X198059500Y-159339500D03*
X198059500Y-164419500D03*
X195519500Y-159339500D03*
X195519500Y-164419500D03*
X192979500Y-159339500D03*
X192979500Y-164419500D03*
X190439500Y-159339500D03*
X190439500Y-164419500D03*
X187899500Y-159339500D03*
X187899500Y-164419500D03*
X185359500Y-159339500D03*
X185359500Y-164419500D03*
X182819500Y-159339500D03*
X182819500Y-164419500D03*
X180279500Y-159339500D03*
X180279500Y-164419500D03*
X177739500Y-159339500D03*
X177739500Y-164419500D03*
X175199500Y-159339500D03*
X175199500Y-164419500D03*
X172659500Y-159339500D03*
X172659500Y-164419500D03*
X170119500Y-159339500D03*
X170119500Y-164419500D03*
X167579500Y-159339500D03*
X167579500Y-164419500D03*
X165039500Y-159339500D03*
X165039500Y-164419500D03*
X162499500Y-159339500D03*
X162499500Y-164419500D03*
X159959500Y-159339500D03*
X159959500Y-164419500D03*
X157419500Y-159339500D03*
X157419500Y-164419500D03*
X154879500Y-159339500D03*
X154879500Y-164419500D03*
X152339500Y-159339500D03*
X152339500Y-164419500D03*
X149799500Y-159339500D03*
X149799500Y-164419500D03*
X147259500Y-159339500D03*
X147259500Y-164419500D03*
X144719500Y-159339500D03*
X144719500Y-164419500D03*
X142179500Y-159339500D03*
X142179500Y-164419500D03*
X139639500Y-159339500D03*
X139639500Y-164419500D03*
X137099500Y-159339500D03*
X137099500Y-164419500D03*
X134559500Y-159339500D03*
X134559500Y-164419500D03*
X132019500Y-159339500D03*
X132019500Y-164419500D03*
X129479500Y-159339500D03*
X129479500Y-164419500D03*
X126939500Y-159339500D03*
X126939500Y-164419500D03*
X124399500Y-159339500D03*
X124399500Y-164419500D03*
X121859500Y-159339500D03*
X121859500Y-164419500D03*
X119319500Y-159339500D03*
X119319500Y-164419500D03*
X116779500Y-159339500D03*
X116779500Y-164419500D03*
X114239500Y-159339500D03*
X114239500Y-164419500D03*
X111699500Y-159339500D03*
X111699500Y-164419500D03*
X109159500Y-159339500D03*
X109159500Y-164419500D03*
X106619500Y-159339500D03*
X106619500Y-164419500D03*
X104079500Y-159339500D03*
X104079500Y-164419500D03*
X101539500Y-159339500D03*
X101539500Y-164419500D03*
X98999500Y-159339500D03*
X98999500Y-164419500D03*
X96459500Y-159339500D03*
X96459500Y-164419500D03*
%TD*%
D15*
%TO.C,H4*%
X287119500Y-168699500D03*
D16*
X287119500Y-168699500D03*
%TD*%
D17*
%TO.C,C41*%
X307719500Y-182499500D03*
X313119500Y-182499500D03*
%TD*%
D31*
%TO.C,FB1*%
X205599500Y-174037000D03*
X205599500Y-172162000D03*
%TD*%
D28*
%TO.C,U6*%
X168074500Y-176637000D03*
X169344500Y-176637000D03*
X170614500Y-176637000D03*
X171884500Y-176637000D03*
X173154500Y-176637000D03*
X174424500Y-176637000D03*
X175694500Y-176637000D03*
X176964500Y-176637000D03*
X178234500Y-176637000D03*
X179504500Y-176637000D03*
X179504500Y-169712000D03*
X178234500Y-169712000D03*
X176964500Y-169712000D03*
X175694500Y-169712000D03*
X174424500Y-169712000D03*
X173154500Y-169712000D03*
X171884500Y-169712000D03*
X170614500Y-169712000D03*
X169344500Y-169712000D03*
X168074500Y-169712000D03*
%TD*%
D21*
%TO.C,M1*%
X332650000Y-152725000D03*
D22*
X335190000Y-152725000D03*
X337730000Y-152725000D03*
%TD*%
D15*
%TO.C,H2*%
X298119500Y-110199500D03*
D16*
X298119500Y-110199500D03*
%TD*%
M02*
