M48
; DRILL file {KiCad 8.0.5} date 2026-09-18T10:10:44+0100
; FORMAT={-:-/ absolute / inch / decimal}
; #@! TF.CreationDate,2026-09-18T10:10:44+01:00
; #@! TF.GenerationSoftware,Kicad,Pcbnew,8.0.5
; #@! TF.FileFunction,Plated,1,4,PTH
FMAT,2
INCH
; #@! TA.AperFunction,Plated,PTH,ViaDrill
T1C0.0118
; #@! TA.AperFunction,Plated,PTH,ViaDrill
T2C0.0197
; #@! TA.AperFunction,Plated,PTH,ComponentDrill
T3C0.0315
; #@! TA.AperFunction,Plated,PTH,ComponentDrill
T4C0.0394
; #@! TA.AperFunction,Plated,PTH,ComponentDrill
T5C0.0402
; #@! TA.AperFunction,Plated,PTH,ComponentDrill
T6C0.0551
; #@! TA.AperFunction,Plated,PTH,ComponentDrill
T7C0.0669
; #@! TA.AperFunction,Plated,PTH,ComponentDrill
T8C0.1693
%
G90
G05
T1
X3.1189Y-4.0984
X3.1189Y-4.2638
X3.1189Y-4.5118
X3.1189Y-4.748
X3.1189Y-5.0039
X3.1189Y-5.248
X3.1189Y-5.5157
X3.1189Y-5.7795
X3.1189Y-6.0039
X3.1189Y-6.2323
X3.1189Y-6.6929
X3.1189Y-6.9409
X3.1189Y-7.2086
X3.1189Y-7.4685
X3.1189Y-7.7244
X3.1228Y-6.4606
X3.2567Y-6.8937
X3.3382Y-6.8197
X3.3394Y-6.0795
X3.359Y-5.2992
X3.363Y-5.0197
X3.3905Y-6.1338
X3.3905Y-7.7244
X3.3984Y-4.0984
X3.4378Y-6.8197
X3.4693Y-4.7756
X3.4693Y-5.0039
X3.4732Y-5.3346
X3.4771Y-5.5787
X3.489Y-6.874
X3.5126Y-6.7008
X3.5394Y-6.8307
X3.5716Y-4.7795
X3.5716Y-5.0039
X3.5716Y-5.3346
X3.5716Y-5.5787
X3.5795Y-6.0
X3.6149Y-4.496
X3.6228Y-6.874
X3.6268Y-5.7795
X3.6386Y-7.7086
X3.6661Y-5.3307
X3.6701Y-5.5787
X3.674Y-5.0039
X3.6779Y-4.7795
X3.7016Y-4.0984
X3.7134Y-6.1338
X3.7291Y-5.7795
X3.7291Y-6.7086
X3.7291Y-6.9409
X3.7291Y-7.4567
X3.7645Y-4.2953
X3.8Y-5.0
X3.8Y-5.3307
X3.8157Y-6.7842
X3.8157Y-6.8779
X3.8275Y-5.7795
X3.8386Y-7.0394
X3.8433Y-7.1496
X3.863Y-6.6023
X3.8748Y-6.7638
X3.8827Y-6.0275
X3.9023Y-7.7047
X3.9063Y-6.1338
X3.922Y-5.0
X3.922Y-5.3307
X3.9376Y-7.6228
X3.964Y-6.6142
X3.9771Y-6.0275
X3.989Y-7.6464
X3.9968Y-4.0984
X4.0086Y-6.1378
X4.014Y-6.6142
X4.0165Y-5.7795
X4.048Y-7.6622
X4.064Y-6.6142
X4.0756Y-6.0275
X4.0795Y-5.0
X4.0795Y-5.3307
X4.0795Y-5.5787
X4.0795Y-6.7716
X4.0795Y-6.8553
X4.1031Y-4.2953
X4.1071Y-6.1378
X4.114Y-6.6142
X4.1268Y-7.674
X4.1622Y-7.559
X4.164Y-6.6142
X4.1701Y-4.7795
X4.174Y-4.996
X4.174Y-5.3307
X4.174Y-5.5787
X4.189Y-7.0315
X4.1937Y-7.7283
X4.214Y-6.6142
X4.2173Y-5.7795
X4.2527Y-6.0275
X4.2606Y-4.0984
X4.2606Y-4.4645
X4.2638Y-6.6142
X4.2685Y-6.8622
X4.2724Y-5.0
X4.2724Y-5.3307
X4.2724Y-5.5787
X4.2764Y-4.7795
X4.3315Y-5.7795
X4.3512Y-6.689
X4.3512Y-6.9173
X4.3708Y-5.0
X4.3708Y-5.3307
X4.3708Y-5.5787
X4.3748Y-4.7756
X4.4023Y-7.7283
X4.4299Y-5.9882
X4.4338Y-5.7795
X4.437Y-6.7586
X4.4456Y-6.8307
X4.4456Y-7.559
X4.4606Y-7.0866
X4.4693Y-5.5787
X4.4732Y-4.7756
X4.4732Y-5.0
X4.4732Y-5.3307
X4.486Y-7.0157
X4.486Y-7.437
X4.5008Y-6.1378
X4.5008Y-6.3661
X4.5118Y-6.622
X4.5126Y-4.2953
X4.5126Y-7.6142
X4.5283Y-5.7795
X4.5323Y-4.0984
X4.5354Y-7.0157
X4.536Y-7.437
X4.5362Y-5.9842
X4.5677Y-5.5787
X4.5716Y-4.7756
X4.5756Y-5.0
X4.5756Y-5.3307
X4.586Y-7.0157
X4.5874Y-6.3661
X4.5874Y-7.5551
X4.6071Y-6.1378
X4.6268Y-5.7795
X4.6307Y-5.9803
X4.636Y-7.0157
X4.636Y-7.4212
X4.6504Y-6.8779
X4.6622Y-7.7323
X4.6661Y-4.4291
X4.674Y-5.3307
X4.6779Y-4.7756
X4.6779Y-5.0
X4.6779Y-5.5787
X4.6858Y-7.5512
X4.686Y-7.0157
X4.6976Y-6.3661
X4.7094Y-6.1378
X4.7291Y-5.7795
X4.7331Y-5.9842
X4.736Y-7.0157
X4.736Y-7.4094
X4.7724Y-5.0
X4.7724Y-5.5787
X4.7764Y-4.7795
X4.7764Y-5.3307
X4.786Y-7.0157
X4.7882Y-7.5472
X4.8Y-6.3661
X4.8079Y-4.0984
X4.8079Y-6.1378
X4.8197Y-5.7795
X4.8354Y-5.9842
X4.836Y-7.0157
X4.836Y-7.3976
X4.859Y-4.3779
X4.8669Y-6.8307
X4.8708Y-5.5787
X4.8748Y-4.7795
X4.8748Y-5.0039
X4.8748Y-5.3307
X4.8827Y-7.1338
X4.9023Y-6.3661
X4.9063Y-7.5472
X4.9102Y-6.1378
X4.9299Y-5.7795
X4.9299Y-7.7323
X4.9338Y-5.9842
X4.9693Y-4.7795
X4.9693Y-5.0
X4.9693Y-5.3307
X4.9693Y-6.6929
X4.9693Y-6.9134
X4.9693Y-7.3543
X4.9732Y-4.2283
X4.9732Y-5.5787
X4.9968Y-6.3661
X5.0086Y-6.1378
X5.0244Y-5.9842
X5.0323Y-5.7756
X5.0512Y-6.7586
X5.0598Y-6.8307
X5.0638Y-4.7795
X5.0638Y-4.996
X5.0638Y-5.3307
X5.0638Y-5.5787
X5.0677Y-7.1378
X5.0748Y-7.0866
X5.0756Y-4.0984
X5.1002Y-7.0157
X5.1071Y-6.3661
X5.1071Y-7.5472
X5.126Y-6.622
X5.1307Y-5.7795
X5.1307Y-5.9842
X5.1502Y-7.0157
X5.1502Y-7.3858
X5.1504Y-4.3779
X5.1614Y-5.6063
X5.1661Y-4.7795
X5.1661Y-4.996
X5.1701Y-5.3307
X5.1701Y-5.5472
X5.1937Y-6.3661
X5.2002Y-7.0157
X5.2016Y-7.5472
X5.2055Y-6.1378
X5.2055Y-7.7323
X5.2331Y-5.9842
X5.2441Y-5.7756
X5.2502Y-7.0157
X5.2645Y-6.8622
X5.2764Y-5.3307
X5.2764Y-5.5827
X5.2803Y-4.9921
X5.2834Y-5.7756
X5.3002Y-7.0157
X5.3079Y-4.3228
X5.3079Y-6.1417
X5.3197Y-4.7756
X5.3315Y-5.9842
X5.3472Y-4.0984
X5.3502Y-7.0157
X5.3669Y-4.9921
X5.3708Y-5.3307
X5.3748Y-5.5827
X5.3779Y-5.7519
X5.3905Y-6.3661
X5.4002Y-7.0157
X5.4063Y-6.1417
X5.422Y-7.5472
X5.4502Y-7.0157
X5.4693Y-4.7756
X5.4693Y-4.9921
X5.4693Y-5.5827
X5.4732Y-5.3307
X5.4766Y-7.3071
X5.485Y-4.2086
X5.4929Y-7.7323
X5.5008Y-5.7598
X5.5008Y-6.3661
X5.5086Y-6.8464
X5.5244Y-7.5354
X5.5401Y-6.1614
X5.5401Y-7.2834
X5.5598Y-6.6142
X5.5598Y-6.8228
X5.5677Y-4.9921
X5.5716Y-5.3307
X5.5756Y-5.5827
X5.5795Y-4.7756
X5.5953Y-4.0984
X5.5953Y-5.8622
X5.6031Y-6.3661
X5.6149Y-4.3228
X5.6149Y-5.7598
X5.6181Y-6.9921
X5.6661Y-4.9921
X5.6661Y-5.5827
X5.6693Y-7.0039
X5.674Y-4.7756
X5.674Y-5.3307
X5.6819Y-5.9882
X5.7008Y-6.185
X5.7008Y-6.3614
X5.7094Y-5.7598
X5.7094Y-5.8622
X5.7134Y-6.9173
X5.7173Y-6.6378
X5.7173Y-6.8307
X5.7252Y-7.0984
X5.7252Y-7.5354
X5.7362Y-7.0157
X5.7449Y-4.2756
X5.7645Y-4.9921
X5.7685Y-4.7756
X5.7685Y-7.7323
X5.7716Y-7.3071
X5.7724Y-5.3307
X5.7724Y-5.5827
X5.8Y-6.3661
X5.8039Y-5.7559
X5.8118Y-5.8622
X5.8149Y-7.0275
X5.8157Y-6.1299
X5.8394Y-4.0984
X5.8394Y-5.9882
X5.8433Y-6.6378
X5.8708Y-5.5827
X5.8708Y-7.2874
X5.8748Y-4.9921
X5.8787Y-4.7756
X5.8787Y-5.3307
X5.8984Y-5.7559
X5.8984Y-7.5275
X5.9023Y-6.3661
X5.9063Y-6.7586
X5.9102Y-6.8228
X5.9142Y-5.8622
X5.9142Y-7.0787
X5.9181Y-6.1299
X5.9331Y-6.8779
X5.9378Y-5.9882
X5.9653Y-4.9921
X5.9693Y-5.5748
X5.9732Y-4.7756
X5.9732Y-5.3307
X5.9968Y-5.7559
X5.9968Y-6.3661
X6.0008Y-4.2677
X6.0084Y-7.2953
X6.0126Y-5.8622
X6.0165Y-6.1299
X6.0401Y-5.9882
X6.0598Y-7.5197
X6.0638Y-5.5787
X6.0638Y-7.7323
X6.0677Y-4.9921
X6.0716Y-5.3307
X6.0756Y-4.7756
X6.0834Y-4.0984
X6.1031Y-5.8622
X6.1071Y-6.8149
X6.1084Y-7.2834
X6.111Y-5.7598
X6.1228Y-6.3661
X6.1268Y-6.1299
X6.1307Y-4.2283
X6.1346Y-5.9882
X6.1584Y-7.2795
X6.1661Y-4.9921
X6.1701Y-4.7756
X6.1701Y-5.3307
X6.174Y-5.5787
X6.1937Y-6.3661
X6.2016Y-6.1299
X6.2086Y-7.2401
X6.2094Y-5.7598
X6.2134Y-5.8622
X6.2291Y-5.9882
X6.2685Y-4.7756
X6.2685Y-4.9921
X6.2685Y-5.3307
X6.2724Y-5.5827
X6.2756Y-6.3504
X6.2834Y-7.2401
X6.2882Y-6.4134
X6.2976Y-6.1401
X6.3118Y-5.7598
X6.3118Y-5.8622
X6.3197Y-7.7323
X6.3228Y-6.5945
X6.3275Y-6.8464
X6.3354Y-5.9882
X6.3394Y-7.1023
X6.3669Y-4.9921
X6.3669Y-5.5827
X6.3708Y-4.2283
X6.3708Y-5.3307
X6.3748Y-4.7756
X6.3945Y-4.0984
X6.4063Y-5.7598
X6.4063Y-6.3661
X6.4102Y-5.8622
X6.4102Y-6.1299
X6.4134Y-7.2244
X6.4399Y-6.5827
X6.4417Y-5.9882
X6.4535Y-6.9173
X6.4575Y-7.1693
X6.463Y-4.7653
X6.4732Y-4.9921
X6.4732Y-5.3307
X6.4771Y-5.5827
X6.4976Y-7.2244
X6.5008Y-6.3661
X6.5047Y-6.1299
X6.5126Y-5.7598
X6.5126Y-5.8622
X6.5165Y-4.1732
X6.5401Y-5.9882
X6.5401Y-6.9173
X6.5559Y-6.6338
X6.5638Y-4.7795
X6.5638Y-5.5827
X6.5638Y-7.7362
X6.5677Y-4.9882
X6.5716Y-5.3307
X6.5834Y-7.1023
X6.6031Y-5.7638
X6.6031Y-6.3661
X6.6071Y-5.8622
X6.611Y-6.1299
X6.6189Y-6.7586
X6.6417Y-6.8779
X6.6425Y-5.9882
X6.6622Y-4.9921
X6.6622Y-5.5827
X6.6661Y-4.7795
X6.6661Y-5.3307
X6.6779Y-4.0984
X6.6897Y-6.8228
X6.6976Y-6.3661
X6.7016Y-5.8622
X6.7016Y-7.4724
X6.7094Y-7.7008
X6.7134Y-6.1299
X6.7173Y-5.7638
X6.7409Y-5.9882
X6.7606Y-4.1732
X6.7645Y-5.3307
X6.7645Y-5.5827
X6.7685Y-4.7795
X6.7724Y-4.9921
X6.8Y-6.3661
X6.8118Y-5.8622
X6.8157Y-6.1299
X6.8189Y-7.7008
X6.8197Y-5.7638
X6.8315Y-5.9921
X6.8661Y-7.1811
X6.8669Y-4.7795
X6.8669Y-4.9921
X6.8669Y-5.3307
X6.8708Y-5.5827
X6.9023Y-6.3661
X6.9102Y-6.1299
X6.9142Y-5.7638
X6.9142Y-5.8622
X6.9173Y-7.1811
X6.9173Y-7.5
X6.9173Y-7.685
X6.9456Y-5.9921
X6.9653Y-4.0984
X6.9653Y-4.9921
X6.9653Y-5.5827
X6.9685Y-7.1811
X6.9693Y-5.3307
X6.9732Y-4.7795
X6.9968Y-6.3661
X7.0086Y-6.1299
X7.0126Y-5.7638
X7.0126Y-5.8622
X7.0157Y-7.5
X7.0171Y-7.1811
X7.0197Y-7.685
X7.0205Y-6.8307
X7.0401Y-5.9882
X7.0433Y-6.5079
X7.063Y-4.7708
X7.063Y-5.5779
X7.0716Y-7.6338
X7.0756Y-7.0787
X7.0913Y-6.3661
X7.1071Y-5.7638
X7.111Y-5.8622
X7.111Y-6.1299
X7.1181Y-7.5
X7.1228Y-4.9921
X7.1386Y-5.9882
X7.1417Y-6.5236
X7.1425Y-5.3307
X7.1464Y-6.626
X7.1464Y-6.9252
X7.1661Y-5.5827
X7.1661Y-7.6338
X7.1701Y-4.7795
X7.1937Y-5.7638
X7.1937Y-6.3661
X7.2094Y-5.8622
X7.2094Y-6.1299
X7.2126Y-6.5533
X7.2331Y-7.0827
X7.237Y-6.7638
X7.2409Y-6.8307
X7.2449Y-5.9882
X7.2598Y-6.8779
X7.2606Y-4.0866
X7.2645Y-4.7795
X7.2645Y-5.5827
X7.2803Y-6.5472
X7.2874Y-7.1811
X7.2882Y-6.4134
X7.296Y-5.7638
X7.296Y-5.8622
X7.3118Y-6.1299
X7.3189Y-7.6614
X7.3197Y-5.3307
X7.3512Y-5.5394
X7.359Y-4.7795
X7.3669Y-6.7677
X7.3878Y-7.1653
X7.3984Y-6.374
X7.4102Y-6.1299
X7.4173Y-7.6614
X7.422Y-5.9882
X7.426Y-5.7638
X7.4338Y-5.3307
X7.4693Y-4.7795
X7.4693Y-5.5827
X7.4693Y-5.9291
X7.4882Y-7.1535
X7.5047Y-6.1299
X7.5086Y-6.374
X7.5197Y-7.5118
X7.5197Y-7.6614
X7.5378Y-7.1535
X7.5519Y-4.0866
X7.5598Y-5.7441
X7.5677Y-5.0
X7.5677Y-5.3307
X7.5677Y-5.5827
X7.5716Y-4.7795
X7.5795Y-5.9252
X7.6031Y-6.374
X7.611Y-6.7677
X7.6181Y-7.5118
X7.622Y-7.6614
X7.6268Y-6.1456
X7.6543Y-7.7449
X7.6614Y-7.126
X7.6701Y-4.7795
X7.6701Y-5.5827
X7.6819Y-4.9724
X7.6897Y-5.8071
X7.6897Y-5.8425
X7.6937Y-5.3661
X7.7055Y-6.374
X7.7165Y-7.5118
X7.7205Y-7.7008
X7.7449Y-6.1811
X7.7606Y-4.7795
X7.7685Y-5.8149
X7.7724Y-5.5827
X7.7764Y-6.3346
X7.7764Y-6.6181
X7.7764Y-6.7677
X7.7764Y-6.9252
X7.7764Y-7.0905
X7.8118Y-5.4094
X7.8189Y-7.5118
X7.8512Y-4.0866
X7.863Y-5.8701
X7.863Y-7.0905
X7.8708Y-6.5472
X7.8748Y-6.7638
X7.8787Y-4.996
X7.8787Y-6.9252
X7.8945Y-6.374
X7.8976Y-7.2047
X7.9023Y-5.3346
X7.9063Y-6.2008
X7.9173Y-7.7008
X7.9653Y-6.5472
X7.9653Y-7.0905
X7.9811Y-6.374
X7.9811Y-6.7638
X7.9811Y-6.9212
X7.9976Y-7.1929
X8.0197Y-7.6614
X8.0669Y-5.9764
X8.0677Y-6.5472
X8.0677Y-6.9212
X8.0677Y-7.0905
X8.0913Y-6.374
X8.0945Y-7.1771
X8.1142Y-7.5118
X8.122Y-7.7008
X8.1346Y-5.8779
X8.1622Y-5.8504
X8.1622Y-7.1456
X8.1661Y-5.0748
X8.1779Y-6.5472
X8.1819Y-4.0866
X8.1937Y-6.374
X8.2165Y-7.5118
X8.2165Y-7.7008
X8.2685Y-5.8464
X8.2842Y-7.1307
X8.2882Y-6.2165
X8.2882Y-6.5472
X8.3Y-6.8236
X8.3039Y-6.689
X8.3189Y-7.7008
X8.3197Y-7.1307
X8.3275Y-6.6181
X8.3504Y-6.6937
X8.3551Y-7.1307
X8.363Y-5.7992
X8.3748Y-4.8661
X8.3827Y-6.2008
X8.3905Y-7.0748
X8.4213Y-6.8307
X8.4213Y-7.7008
X8.4252Y-6.8779
X8.4496Y-7.1976
X8.4614Y-7.2449
X8.4693Y-7.0512
X8.4732Y-4.0866
X8.5047Y-7.2527
X8.5079Y-7.4449
X8.5197Y-7.7008
X8.548Y-6.8228
X8.5638Y-6.6811
X8.6004Y-6.8208
X8.611Y-4.6929
X8.6181Y-7.7008
X8.6425Y-5.2795
X8.6582Y-5.5708
X8.6582Y-6.6102
X8.6701Y-6.7055
X8.674Y-7.1535
X8.6819Y-6.9645
X8.7134Y-6.8071
X8.7205Y-7.7008
X8.7449Y-4.0866
X8.7475Y-6.6648
X8.7756Y-7.0512
X8.7913Y-6.6661
X8.7921Y-5.8149
X8.8079Y-6.4842
X8.815Y-7.5276
X8.8177Y-5.0283
X8.8236Y-4.7598
X8.8307Y-4.1063
X8.8551Y-6.996
X8.863Y-5.5708
X8.863Y-6.7913
X8.8701Y-4.1063
X8.8708Y-5.7441
X8.9102Y-7.1535
X8.9213Y-7.6614
X8.9291Y-4.1201
X8.9338Y-6.3661
X8.9417Y-4.7598
X8.9575Y-5.5945
X8.9645Y-4.1102
X9.0126Y-6.0118
X9.0197Y-7.5276
X9.0197Y-7.7087
X9.0216Y-4.1319
X9.0441Y-4.7598
X9.0441Y-6.2165
X9.0519Y-6.0992
X9.0551Y-4.1299
X9.0598Y-5.5708
X9.0716Y-4.0866
X9.0756Y-6.3897
X9.0945Y-6.7953
X9.1181Y-7.7087
X9.126Y-4.1417
X9.1344Y-5.7447
X9.1346Y-6.2606
X9.1425Y-5.8504
X9.1464Y-4.7598
X9.174Y-6.6535
X9.1858Y-7.0118
X9.1937Y-6.0118
X9.2016Y-6.9016
X9.2165Y-7.7087
X9.2173Y-5.7677
X9.237Y-6.4527
X9.2409Y-5.1543
X9.2488Y-5.2008
X9.2488Y-5.3504
X9.2519Y-7.1023
X9.2519Y-7.1535
X9.2567Y-5.5708
X9.2685Y-6.2165
X9.2756Y-7.0787
X9.2756Y-7.1299
X9.2921Y-5.2134
X9.3039Y-4.7598
X9.3039Y-4.9409
X9.3189Y-7.7087
X9.3315Y-6.3307
X9.3405Y-5.1661
X9.3512Y-6.9409
X9.359Y-4.0905
X9.359Y-7.1142
X9.3669Y-7.5512
X9.3905Y-5.2134
X9.3905Y-5.8779
X9.3905Y-6.0118
X9.3945Y-6.4016
X9.3984Y-5.7677
X9.3984Y-6.6653
X9.4102Y-4.6189
X9.4122Y-6.6287
X9.4173Y-7.7087
X9.4212Y-4.1575
X9.4338Y-6.8787
X9.4378Y-7.185
X9.4456Y-7.0197
X9.4527Y-4.7527
X9.4535Y-5.5787
X9.4614Y-5.1535
X9.4685Y-6.5748
X9.4693Y-4.9378
X9.4693Y-5.3504
X9.4693Y-6.0992
X9.5Y-6.9724
X9.5008Y-6.7283
X9.5039Y-6.5236
X9.5157Y-7.7087
X9.5323Y-7.1063
X9.5354Y-4.1693
X9.5401Y-5.1858
X9.548Y-6.674
X9.5559Y-4.7598
X9.5559Y-5.4212
X9.5559Y-5.5787
X9.563Y-4.1456
X9.5638Y-4.9331
X9.5748Y-6.4764
X9.5748Y-7.0354
X9.5795Y-7.185
X9.5945Y-6.8661
X9.6142Y-7.7087
X9.622Y-4.185
X9.626Y-7.0517
X9.626Y-6.6693
X9.6268Y-6.7834
X9.6346Y-6.9016
X9.6425Y-4.0905
X9.6425Y-4.7598
X9.6504Y-5.3504
X9.6575Y-4.185
X9.6582Y-4.9409
X9.6582Y-5.5787
X9.6582Y-5.7677
X9.6582Y-6.0118
X9.6661Y-6.8386
X9.6819Y-7.4212
X9.6968Y-6.9212
X9.7055Y-6.2086
X9.7134Y-6.6023
X9.7165Y-4.1968
X9.7205Y-7.7087
X9.7212Y-6.3425
X9.7212Y-7.0669
X9.7291Y-6.9567
X9.7331Y-6.5283
X9.7519Y-4.1968
X9.7527Y-4.7598
X9.7606Y-4.9409
X9.7606Y-5.3504
X9.7606Y-5.5787
X9.7756Y-7.0866
X9.7842Y-6.7519
X9.7874Y-6.9094
X9.7921Y-4.1575
X9.811Y-7.0866
X9.815Y-7.7087
X9.8307Y-4.2086
X9.8315Y-6.4055
X9.8386Y-7.0669
X9.8472Y-4.7598
X9.8504Y-6.7362
X9.8551Y-4.9409
X9.8551Y-5.3504
X9.8551Y-5.5787
X9.863Y-6.8512
X9.8661Y-4.2086
X9.8701Y-7.0866
X9.8708Y-5.7677
X9.8787Y-6.0118
X9.8866Y-6.6779
X9.9102Y-7.0512
X9.9173Y-7.7087
X9.9252Y-6.7756
X9.926Y-6.7134
X9.9291Y-4.2205
X9.9338Y-6.0992
X9.9338Y-7.1378
X9.9496Y-4.7598
X9.9496Y-4.9409
X9.9575Y-5.3504
X9.9575Y-5.5787
X9.9606Y-6.5236
X9.9614Y-4.0905
X9.9645Y-4.2205
X9.9653Y-6.5795
X9.9653Y-7.5748
X9.9771Y-6.9456
X9.989Y-6.5519
X9.989Y-7.1228
X10.0Y-6.2953
X10.0047Y-6.2086
X10.0157Y-7.7087
X10.0197Y-4.2323
X10.0283Y-6.626
X10.0354Y-6.8779
X10.0441Y-6.8386
X10.0519Y-4.7598
X10.0519Y-5.5787
X10.0519Y-7.3031
X10.0598Y-4.9409
X10.0598Y-5.3504
X10.0638Y-4.1929
X10.0756Y-6.7205
X10.0787Y-6.3071
X10.0787Y-6.3543
X10.0866Y-5.8897
X10.0913Y-7.5394
X10.1063Y-6.3307
X10.1063Y-6.3779
X10.1149Y-5.8071
X10.1181Y-7.7087
X10.1228Y-6.2008
X10.126Y-4.248
X10.1268Y-7.5905
X10.1338Y-6.248
X10.1378Y-6.2953
X10.1378Y-6.4016
X10.1464Y-5.5787
X10.1535Y-5.8897
X10.1543Y-4.7598
X10.1543Y-7.4212
X10.1614Y-4.248
X10.1622Y-4.9409
X10.1622Y-5.3504
X10.1858Y-6.2008
X10.1858Y-6.5276
X10.1968Y-6.2716
X10.2016Y-5.8071
X10.2016Y-5.8937
X10.2016Y-6.0118
X10.2094Y-6.5489
X10.2165Y-7.7087
X10.2173Y-4.0905
X10.2283Y-4.2598
X10.237Y-7.4094
X10.2409Y-4.7598
X10.2488Y-4.9409
X10.2488Y-5.3504
X10.2488Y-5.5787
X10.2519Y-5.8897
X10.2645Y-7.126
X10.2645Y-7.5905
X10.2716Y-4.2598
X10.2913Y-5.8897
X10.296Y-4.2165
X10.296Y-5.7677
X10.296Y-6.2874
X10.3189Y-7.7047
X10.3228Y-7.3858
X10.3307Y-4.2716
X10.3433Y-4.7598
X10.3512Y-4.9409
X10.3512Y-5.3504
X10.359Y-5.5787
X10.3661Y-4.2716
X10.3708Y-7.4134
X10.3827Y-7.6142
X10.3866Y-7.2953
X10.4173Y-7.7047
X10.437Y-4.2874
X10.4535Y-4.7598
X10.4535Y-4.9409
X10.4535Y-5.122
X10.4535Y-5.3504
X10.4535Y-5.5787
X10.4646Y-7.5827
X10.4724Y-4.2795
X10.5008Y-4.0905
X10.5086Y-4.2401
X10.5315Y-5.1811
X10.5354Y-4.2874
X10.5472Y-7.3819
X10.548Y-5.5787
X10.5559Y-5.3504
X10.5708Y-5.2283
X10.5953Y-4.7598
X10.5953Y-5.7677
X10.5992Y-7.4331
X10.622Y-4.2913
X10.6378Y-7.0906
X10.6457Y-7.2953
X10.6504Y-5.2086
X10.6504Y-5.3582
X10.6504Y-5.9016
X10.6582Y-5.2512
X10.6582Y-5.5787
X10.6819Y-5.1063
X10.6897Y-4.9409
X10.7055Y-5.7677
X10.7283Y-5.1811
X10.7323Y-4.2992
X10.7449Y-4.7598
X10.7527Y-5.5787
X10.7567Y-4.0905
X10.7724Y-4.2638
X10.8268Y-4.311
X10.8472Y-4.7598
X10.8551Y-4.9409
X10.8551Y-5.122
X10.8551Y-5.5787
X10.8622Y-4.311
X10.863Y-5.3504
X10.8898Y-7.0945
X10.9173Y-7.3543
X10.9291Y-6.4803
X10.937Y-4.2913
X10.937Y-4.3268
X10.9409Y-6.1339
X10.9417Y-4.7598
X10.9496Y-4.9409
X10.9496Y-5.3504
X10.9575Y-5.122
X10.9575Y-5.5787
X10.9724Y-5.8779
X11.0126Y-4.0905
X11.0157Y-4.3071
X11.0157Y-4.3386
X11.0197Y-5.8779
X11.0197Y-5.937
X11.0433Y-5.9094
X11.0433Y-7.4685
X11.0441Y-4.7598
X11.0519Y-4.9409
X11.0519Y-5.122
X11.0598Y-5.2165
X11.0598Y-5.3504
X11.0669Y-5.8779
X11.0677Y-5.5787
X11.0748Y-4.3386
X11.0913Y-5.8984
X11.1189Y-5.8787
X11.1228Y-6.1535
X11.126Y-4.3622
X11.1299Y-4.3149
X11.1378Y-7.685
X11.1464Y-4.7677
X11.1543Y-4.9409
X11.1543Y-5.122
X11.1543Y-5.2165
X11.1543Y-5.3504
X11.1614Y-6.8031
X11.1622Y-5.5787
X11.1654Y-5.9685
X11.1937Y-5.7992
X11.1968Y-4.3464
X11.2008Y-7.4094
X11.2126Y-4.3779
X11.2212Y-4.2913
X11.2527Y-4.7638
X11.2567Y-4.9409
X11.2567Y-5.122
X11.2567Y-5.2165
X11.2567Y-5.3504
X11.2567Y-5.5787
X11.2756Y-4.3622
X11.2795Y-6.1299
X11.2795Y-7.3583
X11.2913Y-7.0669
X11.2921Y-4.0905
X11.2953Y-4.3897
X11.3472Y-4.7527
X11.3512Y-4.8071
X11.359Y-4.9409
X11.359Y-5.122
X11.359Y-5.2165
X11.359Y-5.3504
X11.359Y-5.5708
X11.3622Y-4.3701
X11.3657Y-4.4016
X11.378Y-7.5748
X11.3787Y-7.3118
X11.4153Y-7.3622
X11.4216Y-4.3823
X11.4338Y-7.0748
X11.439Y-7.3051
X11.4449Y-4.4291
X11.4535Y-4.3149
X11.4535Y-4.7913
X11.4535Y-4.9409
X11.4535Y-5.122
X11.4535Y-5.2165
X11.4535Y-5.3504
X11.4535Y-5.5787
X11.4614Y-7.563
X11.485Y-5.7992
X11.496Y-4.3819
X11.5118Y-4.4409
X11.5401Y-4.7913
X11.548Y-5.122
X11.548Y-5.2165
X11.5559Y-4.0905
X11.5559Y-4.9409
X11.5559Y-5.5708
X11.5787Y-6.1299
X11.6071Y-7.3622
X11.611Y-7.0748
X11.6346Y-5.4134
X11.6346Y-7.5669
X11.6425Y-4.7913
X11.6504Y-4.9409
X11.6504Y-5.122
X11.6504Y-5.2165
X11.6582Y-5.5708
X11.6811Y-6.3976
X11.7527Y-4.7913
X11.7527Y-4.9409
X11.7527Y-5.122
X11.7527Y-5.2165
X11.7527Y-5.3504
X11.7606Y-5.5708
X11.7953Y-6.3976
X11.8039Y-7.3582
X11.8039Y-7.5669
X11.8157Y-6.6378
X11.8197Y-4.0905
X11.8275Y-7.0748
X11.8472Y-5.7913
X11.8523Y-7.3691
X11.8523Y-7.562
X11.8551Y-4.7913
X11.8551Y-5.122
X11.8551Y-5.2165
X11.8551Y-5.3425
X11.8551Y-5.5708
X11.859Y-7.7283
X11.8622Y-4.122
X11.863Y-4.9409
X11.8917Y-7.3691
X11.9252Y-4.1338
X11.9496Y-4.7913
X11.9575Y-4.9409
X11.9575Y-5.122
X11.9575Y-5.2165
X11.9575Y-5.3504
X11.9645Y-4.1338
X11.9653Y-5.5708
X11.9811Y-7.3543
X11.9811Y-7.5669
X12.0157Y-6.1339
X12.0275Y-4.1496
X12.0441Y-4.7913
X12.0441Y-7.0748
X12.0519Y-4.9409
X12.0519Y-5.3504
X12.0598Y-5.122
X12.0598Y-5.2165
X12.0598Y-5.5708
X12.0669Y-4.1496
X12.0913Y-4.0905
X12.1149Y-5.7834
X12.1149Y-7.0846
X12.1299Y-4.1732
X12.1464Y-4.7913
X12.1464Y-4.9409
X12.1464Y-5.2165
X12.1504Y-7.3661
X12.1543Y-5.122
X12.1543Y-5.3504
X12.1543Y-5.5708
X12.1582Y-6.6338
X12.1693Y-4.1732
X12.1819Y-7.7283
X12.2134Y-7.5669
X12.2323Y-4.4921
X12.2449Y-4.4291
X12.2488Y-4.7913
X12.2488Y-5.5708
X12.2567Y-4.9409
X12.2567Y-5.122
X12.2567Y-5.3504
X12.2645Y-5.2165
X12.2677Y-4.4921
X12.3197Y-7.0827
X12.3307Y-4.5039
X12.3433Y-5.7834
X12.3512Y-4.7913
X12.3512Y-5.2165
X12.3512Y-5.3504
X12.3512Y-7.3661
X12.359Y-4.9409
X12.359Y-5.122
X12.359Y-5.5708
X12.3661Y-4.5039
X12.3708Y-4.0905
X12.3976Y-7.5315
X12.4063Y-6.4055
X12.4212Y-4.5039
X12.4456Y-4.7913
X12.4535Y-7.0748
X12.4606Y-4.4567
X12.4614Y-4.9409
X12.4614Y-5.122
X12.4614Y-5.2165
X12.4614Y-5.3504
X12.4614Y-5.5708
X12.4929Y-7.3543
X12.5086Y-4.2992
X12.5236Y-4.5197
X12.5276Y-6.1339
X12.5401Y-4.7913
X12.548Y-5.122
X12.548Y-5.2165
X12.548Y-5.3504
X12.548Y-7.7283
X12.5559Y-4.9409
X12.5559Y-5.5708
X12.5669Y-4.5197
X12.5913Y-7.185
X12.622Y-4.5315
X12.6425Y-4.7913
X12.6504Y-4.9331
X12.6504Y-6.4055
X12.6543Y-4.0945
X12.6575Y-4.5315
X12.6582Y-5.122
X12.6582Y-5.2165
X12.6582Y-5.3504
X12.6582Y-5.5708
X12.6701Y-7.5512
X12.7212Y-5.3976
X12.7244Y-4.5433
X12.737Y-4.7913
X12.7449Y-5.5315
X12.752Y-4.4606
X12.7527Y-5.9213
X12.8189Y-4.5551
X12.8315Y-5.7834
X12.8394Y-4.7913
X12.8472Y-4.9331
X12.8472Y-5.2165
X12.8472Y-5.3504
X12.8543Y-4.5551
X12.863Y-5.5708
X12.8661Y-4.2953
X12.8866Y-7.7283
X12.9055Y-6.1339
X12.9212Y-4.5669
X12.922Y-7.3464
X12.9417Y-4.7913
X12.9496Y-4.9409
X12.9606Y-4.5669
X12.9624Y-5.1584
X12.9653Y-5.2165
X12.9653Y-5.5708
X12.9724Y-7.5512
X12.985Y-4.0905
X12.989Y-5.1063
X13.0126Y-5.7834
X13.0441Y-4.5197
X13.0913Y-5.2638
X13.0945Y-4.622
X13.0984Y-7.2598
X13.1071Y-4.9331
X13.1071Y-5.3897
X13.1464Y-5.5708
X13.1543Y-4.2992
X13.1543Y-4.8071
X13.1937Y-4.626
X13.2016Y-5.1142
X13.2212Y-6.8976
X13.2252Y-7.7323
X13.296Y-5.5079
X13.3Y-4.0905
X13.3031Y-6.1339
X13.3039Y-4.626
X13.3118Y-4.9331
X13.3118Y-5.2559
X13.3354Y-4.7834
X13.3354Y-7.1102
X13.3465Y-7.5354
X13.3905Y-4.6023
X13.4023Y-4.3031
X13.4535Y-5.3189
X13.4732Y-6.9055
X13.485Y-6.437
X13.5165Y-7.7283
X13.5677Y-4.0905
X13.5945Y-7.3346
X13.5945Y-7.5354
X13.5953Y-5.1693
X13.5953Y-5.3897
X13.6063Y-5.8701
X13.6063Y-6.1535
X13.6378Y-7.1102
X13.6425Y-6.4409
X13.6425Y-6.8582
X13.726Y-7.1788
X13.726Y-7.3031
X13.7283Y-7.4252
X13.8Y-4.0905
X13.8Y-4.311
X13.8Y-4.5079
X13.8Y-4.7008
X13.8Y-4.9055
X13.8Y-6.6299
X13.8039Y-6.3819
X13.8039Y-6.8386
X13.8039Y-7.0512
X13.8039Y-7.2638
X13.8039Y-7.5039
X13.8039Y-7.7283
T2
X12.9653Y-7.185
T3
X3.363Y-4.6732
X3.363Y-4.8732
X3.363Y-5.4732
X3.363Y-5.6732
X3.463Y-4.6732
X3.463Y-4.8732
X3.463Y-5.4732
X3.463Y-5.6732
X3.563Y-4.6732
X3.563Y-4.8732
X3.563Y-5.4732
X3.563Y-5.6732
X3.663Y-4.6732
X3.663Y-4.8732
X3.663Y-5.4732
X3.663Y-5.6732
X3.763Y-4.6732
X3.763Y-4.8732
X3.763Y-5.4732
X3.763Y-5.6732
X3.7976Y-6.2732
X3.7976Y-6.4732
X3.863Y-4.6732
X3.863Y-4.8732
X3.863Y-5.4732
X3.863Y-5.6732
X3.8976Y-6.2732
X3.8976Y-6.4732
X3.963Y-4.6732
X3.963Y-4.8732
X3.963Y-5.4732
X3.963Y-5.6732
X3.9976Y-6.2732
X3.9976Y-6.4732
X4.063Y-4.6732
X4.063Y-4.8732
X4.063Y-5.4732
X4.063Y-5.6732
X4.0976Y-6.2732
X4.0976Y-6.4732
X4.163Y-4.6732
X4.163Y-4.8732
X4.163Y-5.4732
X4.163Y-5.6732
X4.1976Y-6.2732
X4.1976Y-6.4732
X4.263Y-4.6732
X4.263Y-4.8732
X4.263Y-5.4732
X4.263Y-5.6732
X4.2976Y-6.2732
X4.2976Y-6.4732
X4.363Y-4.6732
X4.363Y-4.8732
X4.363Y-5.4732
X4.363Y-5.6732
X4.3976Y-6.2732
X4.3976Y-6.4732
X4.463Y-4.6732
X4.463Y-4.8732
X4.463Y-5.4732
X4.463Y-5.6732
X4.4976Y-6.2732
X4.4976Y-6.4732
X4.563Y-4.6732
X4.563Y-4.8732
X4.563Y-5.4732
X4.563Y-5.6732
X4.5976Y-6.2732
X4.5976Y-6.4732
X4.663Y-4.6732
X4.663Y-4.8732
X4.663Y-5.4732
X4.663Y-5.6732
X4.6976Y-6.2732
X4.6976Y-6.4732
X4.763Y-4.6732
X4.763Y-4.8732
X4.763Y-5.4732
X4.763Y-5.6732
X4.7976Y-6.2732
X4.7976Y-6.4732
X4.863Y-4.6732
X4.863Y-4.8732
X4.863Y-5.4732
X4.863Y-5.6732
X4.8976Y-6.2732
X4.8976Y-6.4732
X4.963Y-4.6732
X4.963Y-4.8732
X4.963Y-5.4732
X4.963Y-5.6732
X4.9976Y-6.2732
X4.9976Y-6.4732
X5.063Y-4.6732
X5.063Y-4.8732
X5.063Y-5.4732
X5.063Y-5.6732
X5.0976Y-6.2732
X5.0976Y-6.4732
X5.163Y-4.6732
X5.163Y-4.8732
X5.163Y-5.4732
X5.163Y-5.6732
X5.1976Y-6.2732
X5.1976Y-6.4732
X5.263Y-4.6732
X5.263Y-4.8732
X5.263Y-5.4732
X5.263Y-5.6732
X5.2976Y-6.2732
X5.2976Y-6.4732
X5.363Y-4.6732
X5.363Y-4.8732
X5.363Y-5.4732
X5.363Y-5.6732
X5.3976Y-6.2732
X5.3976Y-6.4732
X5.463Y-4.6732
X5.463Y-4.8732
X5.463Y-5.4732
X5.463Y-5.6732
X5.4976Y-6.2732
X5.4976Y-6.4732
X5.563Y-4.6732
X5.563Y-4.8732
X5.563Y-5.4732
X5.563Y-5.6732
X5.5976Y-6.2732
X5.5976Y-6.4732
X5.663Y-4.6732
X5.663Y-4.8732
X5.663Y-5.4732
X5.663Y-5.6732
X5.6976Y-6.2732
X5.6976Y-6.4732
X5.763Y-4.6732
X5.763Y-4.8732
X5.763Y-5.4732
X5.763Y-5.6732
X5.7976Y-6.2732
X5.7976Y-6.4732
X5.863Y-4.6732
X5.863Y-4.8732
X5.863Y-5.4732
X5.863Y-5.6732
X5.8976Y-6.2732
X5.8976Y-6.4732
X5.963Y-4.6732
X5.963Y-4.8732
X5.963Y-5.4732
X5.963Y-5.6732
X5.9976Y-6.2732
X5.9976Y-6.4732
X6.063Y-4.6732
X6.063Y-4.8732
X6.063Y-5.4732
X6.063Y-5.6732
X6.0976Y-6.2732
X6.0976Y-6.4732
X6.163Y-4.6732
X6.163Y-4.8732
X6.163Y-5.4732
X6.163Y-5.6732
X6.1976Y-6.2732
X6.1976Y-6.4732
X6.263Y-4.6732
X6.263Y-4.8732
X6.263Y-5.4732
X6.263Y-5.6732
X6.2976Y-6.2732
X6.2976Y-6.4732
X6.363Y-4.6732
X6.363Y-4.8732
X6.363Y-5.4732
X6.363Y-5.6732
X6.3976Y-6.2732
X6.3976Y-6.4732
X6.463Y-4.6732
X6.463Y-4.8732
X6.463Y-5.4732
X6.463Y-5.6732
X6.4976Y-6.2732
X6.4976Y-6.4732
X6.563Y-4.6732
X6.563Y-4.8732
X6.563Y-5.4732
X6.563Y-5.6732
X6.5976Y-6.2732
X6.5976Y-6.4732
X6.663Y-4.6732
X6.663Y-4.8732
X6.663Y-5.4732
X6.663Y-5.6732
X6.6976Y-6.2732
X6.6976Y-6.4732
X6.763Y-4.6732
X6.763Y-4.8732
X6.763Y-5.4732
X6.763Y-5.6732
X6.7685Y-7.485
X6.7685Y-7.685
X6.7976Y-6.2732
X6.7976Y-6.4732
X6.863Y-4.6732
X6.863Y-4.8732
X6.863Y-5.4732
X6.863Y-5.6732
X6.8685Y-7.485
X6.8685Y-7.685
X6.8976Y-6.2732
X6.8976Y-6.4732
X6.963Y-4.6732
X6.963Y-4.8732
X6.963Y-5.4732
X6.963Y-5.6732
X6.9685Y-7.485
X6.9685Y-7.685
X6.9976Y-6.2732
X6.9976Y-6.4732
X7.063Y-4.6732
X7.063Y-4.8732
X7.063Y-5.4732
X7.063Y-5.6732
X7.0685Y-7.485
X7.0685Y-7.685
X7.0976Y-6.2732
X7.0976Y-6.4732
X7.163Y-4.6732
X7.163Y-4.8732
X7.163Y-5.4732
X7.163Y-5.6732
X7.1685Y-7.485
X7.1685Y-7.685
X7.1976Y-6.2732
X7.1976Y-6.4732
X7.263Y-4.6732
X7.263Y-4.8732
X7.263Y-5.4732
X7.263Y-5.6732
X7.2685Y-7.485
X7.2685Y-7.685
X7.2976Y-6.2732
X7.2976Y-6.4732
X7.363Y-4.6732
X7.363Y-4.8732
X7.363Y-5.4732
X7.363Y-5.6732
X7.3685Y-7.485
X7.3685Y-7.685
X7.3976Y-6.2732
X7.3976Y-6.4732
X7.463Y-4.6732
X7.463Y-4.8732
X7.463Y-5.4732
X7.463Y-5.6732
X7.4685Y-7.485
X7.4685Y-7.685
X7.4976Y-6.2732
X7.4976Y-6.4732
X7.563Y-4.6732
X7.563Y-4.8732
X7.563Y-5.4732
X7.563Y-5.6732
X7.5685Y-7.485
X7.5685Y-7.685
X7.5976Y-6.2732
X7.5976Y-6.4732
X7.663Y-4.6732
X7.663Y-4.8732
X7.663Y-5.4732
X7.663Y-5.6732
X7.6685Y-7.485
X7.6685Y-7.685
X7.6976Y-6.2732
X7.6976Y-6.4732
X7.763Y-4.6732
X7.763Y-4.8732
X7.763Y-5.4732
X7.763Y-5.6732
X7.7685Y-7.485
X7.7685Y-7.685
X7.7976Y-6.2732
X7.7976Y-6.4732
X7.863Y-4.6732
X7.863Y-4.8732
X7.863Y-5.4732
X7.863Y-5.6732
X7.8685Y-7.485
X7.8685Y-7.685
X7.8976Y-6.2732
X7.8976Y-6.4732
X7.963Y-4.6732
X7.963Y-4.8732
X7.963Y-5.4732
X7.963Y-5.6732
X7.9685Y-7.485
X7.9685Y-7.685
X7.9976Y-6.2732
X7.9976Y-6.4732
X8.063Y-4.6732
X8.063Y-4.8732
X8.063Y-5.4732
X8.063Y-5.6732
X8.0685Y-7.485
X8.0685Y-7.685
X8.0976Y-6.2732
X8.0976Y-6.4732
X8.163Y-4.6732
X8.163Y-4.8732
X8.163Y-5.4732
X8.163Y-5.6732
X8.1685Y-7.485
X8.1685Y-7.685
X8.1976Y-6.2732
X8.1976Y-6.4732
X8.263Y-4.6732
X8.263Y-4.8732
X8.263Y-5.4732
X8.263Y-5.6732
X8.2685Y-7.485
X8.2685Y-7.685
X8.2976Y-6.2732
X8.2976Y-6.4732
X8.3685Y-7.485
X8.3685Y-7.685
X8.3976Y-6.2732
X8.3976Y-6.4732
X8.4685Y-7.485
X8.4685Y-7.685
X8.4976Y-6.2732
X8.4976Y-6.4732
X8.5685Y-7.485
X8.5685Y-7.685
X8.5976Y-6.2732
X8.5976Y-6.4732
X8.6685Y-7.485
X8.6685Y-7.685
X8.6976Y-6.2732
X8.6976Y-6.4732
X8.7527Y-4.6732
X8.7527Y-4.8732
X8.7527Y-5.4732
X8.7527Y-5.6732
X8.7685Y-7.485
X8.7685Y-7.685
X8.8527Y-4.6732
X8.8527Y-4.8732
X8.8527Y-5.4732
X8.8527Y-5.6732
X8.8685Y-7.485
X8.8685Y-7.685
X8.9527Y-4.6732
X8.9527Y-4.8732
X8.9527Y-5.4732
X8.9527Y-5.6732
X8.9685Y-7.485
X8.9685Y-7.685
X9.0527Y-4.6732
X9.0527Y-4.8732
X9.0527Y-5.4732
X9.0527Y-5.6732
X9.0685Y-7.485
X9.0685Y-7.685
X9.1527Y-4.6732
X9.1527Y-4.8732
X9.1527Y-5.4732
X9.1527Y-5.6732
X9.1685Y-7.485
X9.1685Y-7.685
X9.2527Y-4.6732
X9.2527Y-4.8732
X9.2527Y-5.4732
X9.2527Y-5.6732
X9.2685Y-7.485
X9.2685Y-7.685
X9.3527Y-4.6732
X9.3527Y-4.8732
X9.3527Y-5.4732
X9.3527Y-5.6732
X9.3685Y-7.485
X9.3685Y-7.685
X9.4527Y-4.6732
X9.4527Y-4.8732
X9.4527Y-5.4732
X9.4527Y-5.6732
X9.4685Y-7.485
X9.4685Y-7.685
X9.5527Y-4.6732
X9.5527Y-4.8732
X9.5527Y-5.4732
X9.5527Y-5.6732
X9.5685Y-7.485
X9.5685Y-7.685
X9.6527Y-4.6732
X9.6527Y-4.8732
X9.6527Y-5.4732
X9.6527Y-5.6732
X9.6685Y-7.485
X9.6685Y-7.685
X9.7527Y-4.6732
X9.7527Y-4.8732
X9.7527Y-5.4732
X9.7527Y-5.6732
X9.7685Y-7.485
X9.7685Y-7.685
X9.8527Y-4.6732
X9.8527Y-4.8732
X9.8527Y-5.4732
X9.8527Y-5.6732
X9.8685Y-7.485
X9.8685Y-7.685
X9.9527Y-4.6732
X9.9527Y-4.8732
X9.9527Y-5.4732
X9.9527Y-5.6732
X9.9685Y-7.485
X9.9685Y-7.685
X10.0527Y-4.6732
X10.0527Y-4.8732
X10.0527Y-5.4732
X10.0527Y-5.6732
X10.0685Y-7.485
X10.0685Y-7.685
X10.1527Y-4.6732
X10.1527Y-4.8732
X10.1527Y-5.4732
X10.1527Y-5.6732
X10.1685Y-7.485
X10.1685Y-7.685
X10.2527Y-4.6732
X10.2527Y-4.8732
X10.2527Y-5.4732
X10.2527Y-5.6732
X10.2685Y-7.485
X10.2685Y-7.685
X10.3527Y-4.6732
X10.3527Y-4.8732
X10.3527Y-5.4732
X10.3527Y-5.6732
X10.3685Y-7.485
X10.3685Y-7.685
X10.4527Y-4.6732
X10.4527Y-4.8732
X10.4527Y-5.4732
X10.4527Y-5.6732
X10.4685Y-7.485
X10.4685Y-7.685
X10.5527Y-4.6732
X10.5527Y-4.8732
X10.5527Y-5.4732
X10.5527Y-5.6732
X10.5685Y-7.485
X10.5685Y-7.685
X10.6527Y-4.6732
X10.6527Y-4.8732
X10.6527Y-5.4732
X10.6527Y-5.6732
X10.6685Y-7.485
X10.6685Y-7.685
X10.7527Y-4.6732
X10.7527Y-4.8732
X10.7527Y-5.4732
X10.7527Y-5.6732
X10.7685Y-7.485
X10.7685Y-7.685
X10.8527Y-4.6732
X10.8527Y-4.8732
X10.8527Y-5.4732
X10.8527Y-5.6732
X10.8685Y-7.485
X10.8685Y-7.685
X10.9527Y-4.6732
X10.9527Y-4.8732
X10.9527Y-5.4732
X10.9527Y-5.6732
X10.9685Y-7.485
X10.9685Y-7.685
X11.0527Y-4.6732
X11.0527Y-4.8732
X11.0527Y-5.4732
X11.0527Y-5.6732
X11.1527Y-4.6732
X11.1527Y-4.8732
X11.1527Y-5.4732
X11.1527Y-5.6732
X11.2527Y-4.6732
X11.2527Y-4.8732
X11.2527Y-5.4732
X11.2527Y-5.6732
X11.3527Y-4.6732
X11.3527Y-4.8732
X11.3527Y-5.4732
X11.3527Y-5.6732
X11.4527Y-4.6732
X11.4527Y-4.8732
X11.4527Y-5.4732
X11.4527Y-5.6732
X11.5527Y-4.6732
X11.5527Y-4.8732
X11.5527Y-5.4732
X11.5527Y-5.6732
X11.6527Y-4.6732
X11.6527Y-4.8732
X11.6527Y-5.4732
X11.6527Y-5.6732
X11.7527Y-4.6732
X11.7527Y-4.8732
X11.7527Y-5.4732
X11.7527Y-5.6732
X11.8527Y-4.6732
X11.8527Y-4.8732
X11.8527Y-5.4732
X11.8527Y-5.6732
X11.9527Y-4.6732
X11.9527Y-4.8732
X11.9527Y-5.4732
X11.9527Y-5.6732
X12.0527Y-4.6732
X12.0527Y-4.8732
X12.0527Y-5.4732
X12.0527Y-5.6732
X12.1527Y-4.6732
X12.1527Y-4.8732
X12.1527Y-5.4732
X12.1527Y-5.6732
X12.2527Y-4.6732
X12.2527Y-4.8732
X12.2527Y-5.4732
X12.2527Y-5.6732
X12.3527Y-4.6732
X12.3527Y-4.8732
X12.3527Y-5.4732
X12.3527Y-5.6732
X12.4527Y-4.6732
X12.4527Y-4.8732
X12.4527Y-5.4732
X12.4527Y-5.6732
X12.5527Y-4.6732
X12.5527Y-4.8732
X12.5527Y-5.4732
X12.5527Y-5.6732
X12.6527Y-4.6732
X12.6527Y-4.8732
X12.6527Y-5.4732
X12.6527Y-5.6732
X12.7527Y-4.6732
X12.7527Y-4.8732
X12.7527Y-5.4732
X12.7527Y-5.6732
X12.8527Y-4.6732
X12.8527Y-4.8732
X12.8527Y-5.4732
X12.8527Y-5.6732
X12.9527Y-4.6732
X12.9527Y-4.8732
X12.9527Y-5.4732
X12.9527Y-5.6732
X13.0527Y-4.6732
X13.0527Y-4.8732
X13.0527Y-5.4732
X13.0527Y-5.6732
X13.1527Y-4.6732
X13.1527Y-4.8732
X13.1527Y-5.4732
X13.1527Y-5.6732
X13.2527Y-4.6732
X13.2527Y-4.8732
X13.2527Y-5.4732
X13.2527Y-5.6732
X13.3527Y-4.6732
X13.3527Y-4.8732
X13.3527Y-5.4732
X13.3527Y-5.6732
X13.4527Y-4.6732
X13.4527Y-4.8732
X13.4527Y-5.4732
X13.4527Y-5.6732
X13.5527Y-4.6732
X13.5527Y-4.8732
X13.5527Y-5.4732
X13.5527Y-5.6732
X13.6527Y-4.6732
X13.6527Y-4.8732
X13.6527Y-5.4732
X13.6527Y-5.6732
T4
X3.2441Y-7.1165
X3.2441Y-7.2165
X3.2473Y-7.3795
X3.2473Y-7.4795
X8.9764Y-6.4724
X8.9764Y-6.7498
X8.9764Y-6.8498
X8.9764Y-6.9498
X10.3228Y-6.489
X10.3228Y-6.589
X10.3228Y-6.689
X10.3228Y-6.789
X10.3228Y-6.889
X10.3228Y-6.989
T5
X11.0142Y-7.1299
X11.1142Y-7.1299
X11.2142Y-7.1299
X13.0965Y-6.0128
X13.1965Y-6.0128
X13.2965Y-6.0128
T6
X11.7362Y-6.5236
X11.7362Y-6.7401
X11.9016Y-6.5236
X11.9016Y-6.7401
X12.0669Y-6.5236
X12.0669Y-6.7401
X12.2323Y-6.5236
X12.2323Y-6.7401
X12.3976Y-6.5236
X12.3976Y-6.7401
X12.563Y-6.5236
X12.563Y-6.7401
X12.7283Y-6.5236
X12.7283Y-6.7401
X12.8937Y-6.5236
X12.8937Y-6.7401
X13.059Y-6.5236
X13.059Y-6.7401
X13.2244Y-6.5236
X13.2244Y-6.7401
X13.3897Y-6.5236
X13.3897Y-6.7401
X13.5551Y-6.5236
X13.5551Y-6.7401
T7
X10.5449Y-6.6417
X10.7008Y-6.6417
X10.8567Y-6.6417
X11.0126Y-6.6417
T8
X3.363Y-4.3386
X3.5205Y-6.4645
X11.3039Y-6.6417
X11.737Y-4.3386
M30
